<mxfile host="app.diagrams.net" modified="2023-08-25T16:36:03.815Z" agent="Mozilla/5.0 (X11; Linux x86_64; rv:103.0) Gecko/20100101 Firefox/103.0" etag="XpFzevnSYk2GcLoz6eiP" version="21.6.9" type="github">
  <diagram id="R2lEEEUBdFMjLlhIrx00" name="Page-1">
    <mxGraphModel dx="1434" dy="718" grid="1" gridSize="10" guides="1" tooltips="1" connect="1" arrows="1" fold="1" page="1" pageScale="1" pageWidth="850" pageHeight="1100" math="0" shadow="0" extFonts="Permanent Marker^https://fonts.googleapis.com/css?family=Permanent+Marker">
      <root>
        <mxCell id="0" />
        <mxCell id="1" parent="0" />
        <mxCell id="hkcyEkqvC9X8TI7jShRA-15" value="" style="edgeStyle=orthogonalEdgeStyle;rounded=0;orthogonalLoop=1;jettySize=auto;html=1;" edge="1" parent="1" source="hkcyEkqvC9X8TI7jShRA-1" target="hkcyEkqvC9X8TI7jShRA-13">
          <mxGeometry relative="1" as="geometry" />
        </mxCell>
        <mxCell id="hkcyEkqvC9X8TI7jShRA-1" value="VENDEDOR" style="swimlane;childLayout=stackLayout;horizontal=1;startSize=50;horizontalStack=0;rounded=1;fontSize=14;fontStyle=0;strokeWidth=2;resizeParent=0;resizeLast=1;shadow=0;dashed=0;align=center;arcSize=4;whiteSpace=wrap;html=1;" vertex="1" parent="1">
          <mxGeometry x="20" y="80" width="160" height="120" as="geometry" />
        </mxCell>
        <mxCell id="hkcyEkqvC9X8TI7jShRA-2" value="&lt;div&gt;CÓDIGO&lt;/div&gt;&lt;div&gt;NOME&lt;/div&gt;&lt;div&gt;ENDEREÇO&lt;/div&gt;&lt;div&gt;COMISSÃO&lt;br&gt;&lt;/div&gt;" style="align=left;strokeColor=none;fillColor=none;spacingLeft=4;fontSize=12;verticalAlign=top;resizable=0;rotatable=0;part=1;html=1;" vertex="1" parent="hkcyEkqvC9X8TI7jShRA-1">
          <mxGeometry y="50" width="160" height="70" as="geometry" />
        </mxCell>
        <mxCell id="hkcyEkqvC9X8TI7jShRA-17" value="" style="edgeStyle=orthogonalEdgeStyle;rounded=0;orthogonalLoop=1;jettySize=auto;html=1;" edge="1" parent="1" source="hkcyEkqvC9X8TI7jShRA-3" target="hkcyEkqvC9X8TI7jShRA-14">
          <mxGeometry relative="1" as="geometry" />
        </mxCell>
        <mxCell id="hkcyEkqvC9X8TI7jShRA-3" value="CLIENTE" style="swimlane;childLayout=stackLayout;horizontal=1;startSize=50;horizontalStack=0;rounded=1;fontSize=14;fontStyle=0;strokeWidth=2;resizeParent=0;resizeLast=1;shadow=0;dashed=0;align=center;arcSize=4;whiteSpace=wrap;html=1;" vertex="1" parent="1">
          <mxGeometry x="360" y="90" width="160" height="120" as="geometry" />
        </mxCell>
        <mxCell id="hkcyEkqvC9X8TI7jShRA-4" value="&lt;div&gt;CD&lt;/div&gt;&lt;div&gt;NOME&lt;/div&gt;&lt;div&gt;LIMITE DO CREDITO&lt;br&gt;&lt;/div&gt;" style="align=left;strokeColor=none;fillColor=none;spacingLeft=4;fontSize=12;verticalAlign=top;resizable=0;rotatable=0;part=1;html=1;" vertex="1" parent="hkcyEkqvC9X8TI7jShRA-3">
          <mxGeometry y="50" width="160" height="70" as="geometry" />
        </mxCell>
        <mxCell id="hkcyEkqvC9X8TI7jShRA-5" value="PEDIDO" style="swimlane;childLayout=stackLayout;horizontal=1;startSize=50;horizontalStack=0;rounded=1;fontSize=14;fontStyle=0;strokeWidth=2;resizeParent=0;resizeLast=1;shadow=0;dashed=0;align=center;arcSize=4;whiteSpace=wrap;html=1;" vertex="1" parent="1">
          <mxGeometry x="670" y="80" width="160" height="120" as="geometry" />
        </mxCell>
        <mxCell id="hkcyEkqvC9X8TI7jShRA-6" value="&lt;div&gt;NUMERO &lt;br&gt;&lt;/div&gt;&lt;div&gt;DATA &lt;br&gt;&lt;/div&gt;" style="align=left;strokeColor=none;fillColor=none;spacingLeft=4;fontSize=12;verticalAlign=top;resizable=0;rotatable=0;part=1;html=1;" vertex="1" parent="hkcyEkqvC9X8TI7jShRA-5">
          <mxGeometry y="50" width="160" height="70" as="geometry" />
        </mxCell>
        <mxCell id="hkcyEkqvC9X8TI7jShRA-24" value="" style="edgeStyle=orthogonalEdgeStyle;rounded=0;orthogonalLoop=1;jettySize=auto;html=1;" edge="1" parent="1" source="hkcyEkqvC9X8TI7jShRA-7" target="hkcyEkqvC9X8TI7jShRA-19">
          <mxGeometry relative="1" as="geometry" />
        </mxCell>
        <mxCell id="hkcyEkqvC9X8TI7jShRA-7" value="&lt;div&gt;&lt;br&gt;&lt;/div&gt;&lt;div&gt;PEÇAS&lt;br&gt;&lt;/div&gt;" style="swimlane;childLayout=stackLayout;horizontal=1;startSize=50;horizontalStack=0;rounded=1;fontSize=14;fontStyle=0;strokeWidth=2;resizeParent=0;resizeLast=1;shadow=0;dashed=0;align=center;arcSize=4;whiteSpace=wrap;html=1;" vertex="1" parent="1">
          <mxGeometry x="600" y="370" width="160" height="120" as="geometry" />
        </mxCell>
        <mxCell id="hkcyEkqvC9X8TI7jShRA-8" value="&lt;div&gt;CD&lt;/div&gt;&lt;div&gt;DS&lt;/div&gt;&lt;div&gt;PREÇO&lt;br&gt;&lt;/div&gt;" style="align=left;strokeColor=none;fillColor=none;spacingLeft=4;fontSize=12;verticalAlign=top;resizable=0;rotatable=0;part=1;html=1;" vertex="1" parent="hkcyEkqvC9X8TI7jShRA-7">
          <mxGeometry y="50" width="160" height="70" as="geometry" />
        </mxCell>
        <mxCell id="hkcyEkqvC9X8TI7jShRA-22" value="" style="edgeStyle=orthogonalEdgeStyle;rounded=0;orthogonalLoop=1;jettySize=auto;html=1;" edge="1" parent="1" source="hkcyEkqvC9X8TI7jShRA-9" target="hkcyEkqvC9X8TI7jShRA-20">
          <mxGeometry relative="1" as="geometry" />
        </mxCell>
        <mxCell id="hkcyEkqvC9X8TI7jShRA-9" value="ARMAZÉM" style="swimlane;childLayout=stackLayout;horizontal=1;startSize=50;horizontalStack=0;rounded=1;fontSize=14;fontStyle=0;strokeWidth=2;resizeParent=0;resizeLast=1;shadow=0;dashed=0;align=center;arcSize=4;whiteSpace=wrap;html=1;" vertex="1" parent="1">
          <mxGeometry x="230" y="370" width="160" height="120" as="geometry" />
        </mxCell>
        <mxCell id="hkcyEkqvC9X8TI7jShRA-10" value="&lt;div&gt;CD&lt;/div&gt;&lt;div&gt;ED&lt;br&gt;&lt;/div&gt;" style="align=left;strokeColor=none;fillColor=none;spacingLeft=4;fontSize=12;verticalAlign=top;resizable=0;rotatable=0;part=1;html=1;" vertex="1" parent="hkcyEkqvC9X8TI7jShRA-9">
          <mxGeometry y="50" width="160" height="70" as="geometry" />
        </mxCell>
        <mxCell id="hkcyEkqvC9X8TI7jShRA-16" value="" style="edgeStyle=orthogonalEdgeStyle;rounded=0;orthogonalLoop=1;jettySize=auto;html=1;" edge="1" parent="1" source="hkcyEkqvC9X8TI7jShRA-13" target="hkcyEkqvC9X8TI7jShRA-4">
          <mxGeometry relative="1" as="geometry" />
        </mxCell>
        <mxCell id="hkcyEkqvC9X8TI7jShRA-13" value="ATENDE" style="shape=rhombus;perimeter=rhombusPerimeter;whiteSpace=wrap;html=1;align=center;" vertex="1" parent="1">
          <mxGeometry x="230" y="110" width="90" height="60" as="geometry" />
        </mxCell>
        <mxCell id="hkcyEkqvC9X8TI7jShRA-18" value="" style="edgeStyle=orthogonalEdgeStyle;rounded=0;orthogonalLoop=1;jettySize=auto;html=1;" edge="1" parent="1" source="hkcyEkqvC9X8TI7jShRA-14" target="hkcyEkqvC9X8TI7jShRA-6">
          <mxGeometry relative="1" as="geometry" />
        </mxCell>
        <mxCell id="hkcyEkqvC9X8TI7jShRA-14" value="FAZ" style="shape=rhombus;perimeter=rhombusPerimeter;whiteSpace=wrap;html=1;align=center;" vertex="1" parent="1">
          <mxGeometry x="550" y="110" width="90" height="60" as="geometry" />
        </mxCell>
        <mxCell id="hkcyEkqvC9X8TI7jShRA-25" value="" style="edgeStyle=orthogonalEdgeStyle;rounded=0;orthogonalLoop=1;jettySize=auto;html=1;" edge="1" parent="1" source="hkcyEkqvC9X8TI7jShRA-19" target="hkcyEkqvC9X8TI7jShRA-6">
          <mxGeometry relative="1" as="geometry" />
        </mxCell>
        <mxCell id="hkcyEkqvC9X8TI7jShRA-19" value="TEM" style="shape=rhombus;perimeter=rhombusPerimeter;whiteSpace=wrap;html=1;align=center;" vertex="1" parent="1">
          <mxGeometry x="700" y="250" width="100" height="60" as="geometry" />
        </mxCell>
        <mxCell id="hkcyEkqvC9X8TI7jShRA-23" value="" style="edgeStyle=orthogonalEdgeStyle;rounded=0;orthogonalLoop=1;jettySize=auto;html=1;" edge="1" parent="1" source="hkcyEkqvC9X8TI7jShRA-20" target="hkcyEkqvC9X8TI7jShRA-8">
          <mxGeometry relative="1" as="geometry" />
        </mxCell>
        <mxCell id="hkcyEkqvC9X8TI7jShRA-20" value="TEM" style="shape=rhombus;perimeter=rhombusPerimeter;whiteSpace=wrap;html=1;align=center;" vertex="1" parent="1">
          <mxGeometry x="450" y="390" width="90" height="60" as="geometry" />
        </mxCell>
      </root>
    </mxGraphModel>
  </diagram>
</mxfile>
